# xmcd
#
# Track frame offsets:
#	150
#	10182
#	19427
#	30575
#	40452
#	50497
#	62235
#	73720
#	85522
#	95227
#	105127
#	116485
#	127030
#	137125
#	149195
#	161795
#	171985
#	182535
#	194872
#	205347
#
# Disc length: 2897 seconds
#
# Revision: 1
# Processed by: cddbd v1.5PL3 Copyright (c) Steve Scherf et al.
# Submitted via: CDex 1.50Beta5
#
DISCID=310b4f14
DTITLE=Various Artist - The Best Oldies Pops Top20
DYEAR=1992
DGENRE=Pop
TTITLE0=The Tradewinds/New York's A Lonely Town
TTITLE1=Eddie Hodges/I'm Gonna Knock On Your Door
TTITLE2=Johnny Tillotson/Poetry In Motion
TTITLE3=Nancy Sinatra/Like I Do
TTITLE4=Gene Pithey/Hello Mery Lue
TTITLE5=The Platters/Only You
TTITLE6=The Ronettes/Be My Baby
TTITLE7=The Platters/Smoke Gets In Your Eyes
TTITLE8=The Chordettes/Lollipop
TTITLE9=Fleetwoods/Come Softly To Me
TTITLE10=Paul and Paula/Hey Paula
TTITLE11=The Crystals/He's A Rebel
TTITLE12=Lesley Gore/It's My Party
TTITLE13=The Shirelles/Will You Still Love Me Tomorrow
TTITLE14=The Shangri-Las/Leader Of The Pack
TTITLE15=Chiffons/One Fine Day
TTITLE16=Frankie Limon and Teenagers/Why Do Fools Fall In Love
TTITLE17=The Spaniels/Goodnight, Sweetheart, Goodnight
TTITLE18=Frankie Avalon/Venus
TTITLE19=The Shirelles/Baby, It's You
EXTD=
EXTT0=
EXTT1=
EXTT2=
EXTT3=
EXTT4=
EXTT5=
EXTT6=
EXTT7=
EXTT8=
EXTT9=
EXTT10=
EXTT11=
EXTT12=
EXTT13=
EXTT14=
EXTT15=
EXTT16=
EXTT17=
EXTT18=
EXTT19=
PLAYORDER=
